HIERARCHY
ROOT Hips
{
	OFFSET 0.000000 0.000000 0.000000
	CHANNELS 6 Xposition Yposition Zposition Zrotation Yrotation Xrotation 
	JOINT LowerBack
	{
		OFFSET 0.000000 0.000000 0.000000
		CHANNELS 3 Zrotation Yrotation Xrotation
		JOINT Spine
		{
			OFFSET 0.028270 2.035590 -0.193380
			CHANNELS 3 Zrotation Yrotation Xrotation
			JOINT Spine1
			{
				OFFSET 0.056720 2.048850 -0.042750
				CHANNELS 3 Zrotation Yrotation Xrotation
				JOINT Neck
				{
					OFFSET 0.000000 0.000000 0.000000
					CHANNELS 3 Zrotation Yrotation Xrotation
					JOINT Neck1
					{
						OFFSET -0.054170 1.746240 0.172020
						CHANNELS 3 Zrotation Yrotation Xrotation
						JOINT Head
						{
							OFFSET 0.104070 1.761360 -0.123970
							CHANNELS 3 Zrotation Yrotation Xrotation
							End Site
							{
								OFFSET 0.000000 0.000000 0.000000
							}
						}
					}
				}
				JOINT LeftShoulder
				{
					OFFSET 0.000000 0.000000 0.000000
					CHANNELS 3 Zrotation Yrotation Xrotation
					JOINT LeftArm
					{
						OFFSET 3.362410 1.200890 -0.311210
						CHANNELS 3 Zrotation Yrotation Xrotation
						JOINT LeftForeArm
						{
							OFFSET 4.983000 -0.000000 -0.000000
							CHANNELS 3 Zrotation Yrotation Xrotation
							JOINT LeftHand
							{
								OFFSET 3.483560 -0.000000 -0.000000
								CHANNELS 3 Zrotation Yrotation Xrotation
								JOINT LeftFingerBase
								{
									OFFSET 0.000000 0.000000 0.000000
									CHANNELS 3 Zrotation Yrotation Xrotation
									JOINT LeftHandIndex1
									{
										OFFSET 0.715260 -0.000000 -0.000000
										CHANNELS 3 Zrotation Yrotation Xrotation
										End Site
										{
											OFFSET 0.000000 0.000000 0.000000
										}
									}
								}
								JOINT LThumb
								{
									OFFSET 0.000000 0.000000 0.000000
									CHANNELS 3 Zrotation Yrotation Xrotation
									End Site
									{
										OFFSET 0.000000 0.000000 0.000000
									}
								}
							}
						}
					}
				}
				JOINT RightShoulder
				{
					OFFSET 0.000000 0.000000 0.000000
					CHANNELS 3 Zrotation Yrotation Xrotation
					JOINT RightArm
					{
						OFFSET -3.136600 1.374050 -0.404650
						CHANNELS 3 Zrotation Yrotation Xrotation
						JOINT RightForeArm
						{
							OFFSET -5.241900 -0.000000 -0.000000
							CHANNELS 3 Zrotation Yrotation Xrotation
							JOINT RightHand
							{
								OFFSET -3.444170 -0.000000 -0.000000
								CHANNELS 3 Zrotation Yrotation Xrotation
								JOINT RightFingerBase
								{
									OFFSET 0.000000 0.000000 0.000000
									CHANNELS 3 Zrotation Yrotation Xrotation
									JOINT RightHandIndex1
									{
										OFFSET -0.622530 -0.000000 -0.000000
										CHANNELS 3 Zrotation Yrotation Xrotation
										End Site
										{
											OFFSET 0.000000 0.000000 0.000000
										}
									}
								}
								JOINT RThumb
								{
									OFFSET 0.000000 0.000000 0.000000
									CHANNELS 3 Zrotation Yrotation Xrotation
									End Site
									{
										OFFSET 0.000000 0.000000 0.000000
									}
								}
							}
						}
					}
				}
			}
		}
	}
}
}
MOTION
Frames: 15
Frame Time: 0.008333
4.337110 17.418466 -0.525443 -10.384889 80.901284 16.743544 -2.467034 -1.702919 -1.135892 -1.424774 -1.658155 -3.090295 -7.587166 -1.779710 0.735488 10.311820 -3.334643 -5.403487 -3.596107 -0.279052 0.417101 0.000000 0.000000 0.000000 -6.465281 2.204177 3.929063 -50.737567 -17.994265 21.160303 -4.035054 -43.678342 0.023192 -11.218853 -0.239187 0.034732 -0.102632 0.103559 0.000000 0.000000 0.000000 0.000000 0.000000 0.000000 0.000000 16.266897 -1.251758 1.726287 62.769330 6.605899 18.451794 2.726788 38.356483 0.019736 4.272539 11.432483 0.430359 0.038979 -0.146831 -0.000000 0.000000 0.000000 0.000000 0.000000 0.000000 0.000000 
4.609478 17.441475 -0.502711 -10.816330 81.115777 16.114991 -1.936165 -1.910662 -1.073750 -1.328762 -1.903187 -3.064669 -7.740809 -2.017852 0.757626 10.466924 -3.343360 -5.352144 -3.671289 -0.284599 0.433823 0.000000 0.000000 0.000000 -6.228072 2.046791 3.986275 -49.887552 -19.441253 21.389174 -3.869956 -46.127173 0.026272 -11.095965 -0.426651 0.053894 -0.096302 0.118567 0.000000 0.000000 0.000000 0.000000 0.000000 0.000000 0.000000 16.731293 -1.405200 1.735357 63.183740 5.401199 17.387617 2.811303 36.858142 0.019491 4.464625 11.479519 0.451334 0.038944 -0.137680 -0.000000 0.000000 0.000000 0.000000 0.000000 0.000000 0.000000 
4.882340 17.452847 -0.476669 -10.708876 81.384757 16.048667 -1.500670 -2.136175 -1.051929 -1.249920 -2.160033 -3.044800 -7.879246 -2.267378 0.783483 10.623158 -3.410021 -5.308342 -3.739325 -0.289693 0.449262 0.000000 0.000000 0.000000 -5.924701 1.849215 4.036227 -48.957186 -20.828162 21.453816 -3.689676 -48.556201 0.029330 -10.956534 -0.578784 0.069347 -0.089231 0.134615 -0.000000 0.000000 0.000000 0.000000 0.000000 0.000000 0.000000 17.173163 -1.623005 1.742678 63.486141 4.176013 16.389330 2.882486 35.644893 0.019208 4.633670 11.512938 0.469511 0.038964 -0.129348 -0.000000 0.000000 0.000000 0.000000 0.000000 0.000000 0.000000 
5.155334 17.452948 -0.446639 -9.970882 81.704997 16.630499 -1.172650 -2.377463 -1.059073 -1.190846 -2.425896 -3.027300 -8.000811 -2.525111 0.816785 10.780475 -3.554828 -5.281233 -3.798606 -0.294126 0.460624 0.000000 0.000000 0.000000 -5.543738 1.624762 4.075100 -47.955872 -22.175370 21.367360 -3.495391 -50.945510 0.032387 -10.816242 -0.704841 0.081991 -0.081199 0.151650 0.000000 0.000000 0.000000 0.000000 0.000000 0.000000 0.000000 17.589828 -1.923988 1.746758 63.698689 2.954180 15.486650 2.940070 34.702118 0.018895 4.765371 11.537459 0.483590 0.039133 -0.121817 -0.000000 0.000000 0.000000 0.000000 0.000000 0.000000 0.000000 
5.427992 17.442081 -0.412325 -8.535386 82.071202 17.919652 -0.953597 -2.631183 -1.082639 -1.152092 -2.697204 -3.012149 -8.103567 -2.787868 0.848363 10.934596 -3.761201 -5.264014 -3.848722 -0.297951 0.469604 0.000000 0.000000 0.000000 -5.069621 1.348092 4.100541 -46.902157 -23.440856 21.119507 -3.285751 -53.302928 0.035466 -10.694154 -0.803423 0.092025 -0.071773 0.169569 -0.000000 0.000000 0.000000 0.000000 0.000000 0.000000 0.000000 17.971242 -2.288939 1.749470 63.850845 1.709972 14.644864 2.984178 34.026380 0.018551 4.872440 11.546716 0.494672 0.039266 -0.115051 -0.000000 0.000000 0.000000 0.000000 0.000000 0.000000 0.000000 
5.699963 17.420660 -0.373740 -6.368095 82.475113 19.944169 -0.832194 -2.895073 -1.108186 -1.131394 -2.972116 -2.994459 -8.185806 -3.053239 0.886236 11.081201 -4.062158 -5.270374 -3.887557 -0.300870 0.472241 0.000000 0.000000 0.000000 -4.506135 1.040514 4.106838 -45.800038 -24.651384 20.727402 -3.062346 -55.615178 0.038597 -10.602485 -0.881162 0.100243 -0.060664 0.188239 -0.000000 0.000000 0.000000 0.000000 0.000000 0.000000 0.000000 18.309656 -2.751766 1.750579 63.954027 0.504253 13.923886 3.016562 33.569586 0.018214 4.932262 11.555538 0.500858 0.039653 -0.109021 -0.000000 0.000000 0.000000 0.000000 0.000000 0.000000 0.000000 
5.970900 17.389131 -0.331300 -3.475978 82.906531 22.689299 -0.787196 -3.164832 -1.122155 -1.124799 -3.247478 -2.974078 -8.247202 -3.318538 0.921880 11.213826 -4.430158 -5.291875 -3.915401 -0.302973 0.470677 0.000000 0.000000 0.000000 -3.856293 0.688450 4.093587 -44.655939 -25.779827 20.188784 -2.826261 -57.887937 0.041818 -10.552667 -0.937785 0.106845 -0.047604 0.207532 -0.000000 0.000000 0.000000 0.000000 0.000000 0.000000 0.000000 18.594383 -3.282008 1.752560 64.029722 -0.689507 13.272322 3.038866 33.320408 0.017886 4.974475 11.554201 0.504844 0.040030 -0.103652 -0.000000 0.000000 0.000000 0.000000 0.000000 0.000000 0.000000 
6.240553 17.348018 -0.285690 0.088146 83.352631 26.094467 -0.790002 -3.435556 -1.111258 -1.126565 -3.519994 -2.948122 -8.287729 -3.580416 0.957228 11.326745 -4.869434 -5.332243 -3.931539 -0.304145 0.463749 0.000000 0.000000 0.000000 -3.136097 0.304545 4.058338 -43.467384 -26.837568 19.512030 -2.580546 -60.112235 0.045170 -10.549644 -0.977446 0.112430 -0.032440 0.227297 -0.000000 0.000000 0.000000 0.000000 0.000000 0.000000 0.000000 18.817266 -3.882781 1.756807 64.085212 -1.843713 12.703971 3.053691 33.239765 0.017592 5.003845 11.546369 0.507234 0.040466 -0.098878 -0.000000 0.000000 0.000000 0.000000 0.000000 0.000000 0.000000 
6.508865 17.297906 -0.237721 4.238597 83.797272 30.063933 -0.812326 -3.700722 -1.063021 -1.131016 -3.784788 -2.915282 -8.308346 -3.834370 0.988592 11.414677 -5.360660 -5.386890 -3.936431 -0.304427 0.452583 0.000000 0.000000 0.000000 -2.362988 -0.107366 4.001372 -42.231687 -27.821222 18.700250 -2.329051 -62.280498 0.048678 -10.594780 -1.002700 0.117295 -0.015133 0.247375 -0.000000 0.000000 0.000000 0.000000 0.000000 0.000000 0.000000 18.972118 -4.531471 1.765443 64.128683 -2.963650 12.194327 3.063484 33.302532 0.017337 5.042458 11.527818 0.510125 0.040849 -0.094623 -0.000000 0.000000 0.000000 0.000000 0.000000 0.000000 0.000000 
6.776140 17.239334 -0.188245 8.869816 84.224825 34.485114 -0.829138 -3.953956 -0.971411 -1.132674 -4.037037 -2.873615 -8.309470 -4.075703 1.019152 11.473115 -5.906584 -5.458806 -3.929626 -0.303730 0.436391 0.000000 0.000000 0.000000 -1.560611 -0.528393 3.921622 -40.942835 -28.746962 17.763736 -2.076778 -64.374514 0.052350 -10.683358 -1.018015 0.121740 0.004233 0.267599 -0.000000 0.000000 0.000000 0.000000 0.000000 0.000000 0.000000 19.053610 -5.228957 1.779062 64.158953 -4.025113 11.760672 3.070898 33.470379 0.017144 5.095404 11.500924 0.514018 0.041270 -0.090810 -0.000000 0.000000 0.000000 0.000000 0.000000 0.000000 0.000000 
7.042280 17.172927 -0.137952 13.926506 84.609336 39.273584 -0.837455 -4.189662 -0.807659 -1.130693 -4.270586 -2.813949 -8.289598 -4.297643 1.059634 11.501785 -6.544770 -5.562936 -3.908742 -0.301666 0.410737 0.000000 0.000000 0.000000 -0.745607 -0.923563 3.814826 -39.598250 -29.658640 16.710304 -1.829532 -66.357875 0.056171 -10.810049 -1.031564 0.126460 0.025682 0.287797 -0.000000 0.000000 0.000000 0.000000 0.000000 0.000000 0.000000 19.059171 -6.012807 1.797992 64.164969 -4.943716 11.494277 3.077767 33.674872 0.017055 5.131253 11.488586 0.516915 0.042108 -0.087439 -0.000000 0.000000 0.000000 0.000000 0.000000 0.000000 0.000000 
7.308317 17.099189 -0.087463 19.354418 84.942212 44.366868 -0.830868 -4.404025 -0.576513 -1.124319 -4.482372 -2.742300 -8.250883 -4.498657 1.091356 11.497606 -7.193013 -5.671105 -3.877634 -0.298784 0.383565 0.000000 0.000000 0.000000 0.069785 -1.315514 3.689035 -38.209838 -30.502210 15.547870 -1.592419 -68.230404 0.060118 -10.965769 -1.040824 0.131259 0.048702 0.307791 -0.000000 0.000000 0.000000 0.000000 0.000000 0.000000 0.000000 18.990054 -6.794253 1.823173 64.164282 -5.834698 11.252209 3.085058 33.947204 0.017006 5.216603 11.457790 0.524012 0.042747 -0.084324 -0.000000 0.000000 0.000000 0.000000 0.000000 0.000000 0.000000 
7.575049 17.018703 -0.037128 25.138840 85.209066 49.731200 -0.817671 -4.596759 -0.265958 -1.115604 -4.671452 -2.654481 -8.192351 -4.677589 1.120495 11.461642 -7.867824 -5.789837 -3.835576 -0.294934 0.353063 0.000000 0.000000 0.000000 0.873129 -1.680306 3.543443 -36.787060 -31.298435 14.295891 -1.370976 -69.961795 0.064127 -11.140647 -1.050395 0.136439 0.072959 0.327382 0.000000 0.000000 0.000000 0.000000 0.000000 0.000000 0.000000 18.848875 -7.591076 1.852948 64.147669 -6.659135 11.081726 3.093614 34.244738 0.017005 5.329673 11.421298 0.533510 0.043410 -0.081402 -0.000000 0.000000 0.000000 0.000000 0.000000 0.000000 0.000000 
7.843617 16.932245 0.012759 31.235620 85.404430 55.318518 -0.802181 -4.769238 0.119378 -1.105964 -4.839416 -2.551997 -8.114787 -4.836348 1.146918 11.395816 -8.558669 -5.915938 -3.783929 -0.290233 0.320294 0.000000 0.000000 0.000000 1.653833 -2.008942 3.380746 -35.346600 -32.043561 12.977666 -1.169702 -71.534613 0.068141 -11.325403 -1.061585 0.141802 0.097937 0.346359 0.000000 0.000000 0.000000 0.000000 0.000000 0.000000 0.000000 18.643251 -8.393582 1.885373 64.110049 -7.425196 10.975893 3.103976 34.550382 0.017038 5.467273 11.380007 0.545209 0.044107 -0.078578 -0.000000 0.000000 0.000000 0.000000 0.000000 0.000000 0.000000 
8.115379 16.840830 0.062168 37.553949 85.530949 61.052576 -0.782516 -4.923794 0.558559 -1.095208 -4.989643 -2.439925 -8.020596 -4.978700 1.171389 11.304086 -9.254590 -6.046294 -3.725006 -0.284891 0.286431 0.000000 0.000000 0.000000 2.400944 -2.294334 3.204866 -33.905938 -32.730795 11.622130 -0.991713 -72.939262 0.072074 -11.512144 -1.073640 0.147354 0.123030 0.364477 0.000000 0.000000 0.000000 0.000000 0.000000 0.000000 0.000000 18.386480 -9.192628 1.917879 64.042809 -8.143034 10.924264 3.116699 34.850470 0.017092 5.621740 11.335994 0.558407 0.044872 -0.075774 -0.000000 0.000000 0.000000 0.000000 0.000000 0.000000 0.000000 
